<svg xmlns="http://www.w3.org/2000/svg" viewBox="0 0 64 64" role="img" aria-label="PR">
  <defs>
    <linearGradient id="bg" x1="10" y1="8" x2="54" y2="56" gradientUnits="userSpaceOnUse">
      <stop stop-color="#9b5cff"/>
      <stop offset="1" stop-color="#35d0ba"/>
    </linearGradient>
    <linearGradient id="edge" x1="18" y1="12" x2="48" y2="58" gradientUnits="userSpaceOnUse">
      <stop stop-color="#f8f7ff" stop-opacity=".58"/>
      <stop offset="1" stop-color="#f8f7ff" stop-opacity=".1"/>
    </linearGradient>
    <filter id="shadow" x="-10" y="-8" width="84" height="84" color-interpolation-filters="sRGB">
      <feDropShadow dx="0" dy="7" stdDeviation="6" flood-color="#000000" flood-opacity=".38"/>
    </filter>
  </defs>
  <rect width="64" height="64" rx="14" fill="#0b0a12"/>
  <path fill="url(#bg)" filter="url(#shadow)" d="M10 18.4A8.4 8.4 0 0 1 18.4 10h27.2a8.4 8.4 0 0 1 8.4 8.4v27.2a8.4 8.4 0 0 1-8.4 8.4H18.4a8.4 8.4 0 0 1-8.4-8.4z"/>
  <path fill="none" stroke="url(#edge)" stroke-width="2" d="M18.6 11h26.8A7.6 7.6 0 0 1 53 18.6v26.8a7.6 7.6 0 0 1-7.6 7.6H18.6a7.6 7.6 0 0 1-7.6-7.6V18.6a7.6 7.6 0 0 1 7.6-7.6Z"/>
  <path fill="#0b0a12" fill-opacity=".22" d="M22 18h20a6 6 0 0 1 6 6v16a6 6 0 0 1-6 6H22a6 6 0 0 1-6-6V24a6 6 0 0 1 6-6Z"/>
  <path fill="#ffffff" d="M21 43V21h11.2c5 0 8.2 2.9 8.2 7.3 0 4.5-3.2 7.3-8.2 7.3h-5.1V43H21Zm6.1-12.4h4.4c1.8 0 2.8-.9 2.8-2.3 0-1.5-1-2.4-2.8-2.4h-4.4v4.7Z"/>
  <path fill="#ffffff" d="M39 43V31.8h5.7c2 0 3.3 1.2 3.3 3 0 1.3-.7 2.3-1.8 2.8L49 43h-4.2l-2.2-4.6h-.1V43H39Zm3.5-7.5h1.4c.7 0 1.1-.3 1.1-.9s-.4-.9-1.1-.9h-1.4v1.8Z"/>
  <path fill="#35d0ba" d="m46.8 18.4 2.7 2.7-2.7 2.7-1.8-1.8.9-.9-.9-.9 1.8-1.8Zm-7.6 0 1.8 1.8-.9.9.9.9-1.8 1.8-2.7-2.7 2.7-2.7Z"/>
</svg>
